# xmcd CD database file generated by Grip 3.3.1
# 
# Track frame offsets:
#       183
#       11545
#       23970
#       35698
#       47995
#       60613
#       74300
#       87510
#       100900
#       110795
#       123048
#       135673
#       151560
#       163893
#       187253
#       198560
#       215643
#       229128
# 
# Disc length: 3220 seconds
# 
# Revision: 4
# Processed by: cddbd v1.5.2PL0 Copyright (c) Steve Scherf et al.
# Submitted via: Grip 3.3.1
# 
DISCID=060c9212
DTITLE=John Lee Hooker - Boogie Man
DYEAR=1994
DGENRE=Blues
TTITLE0=Boom Boom
TTITLE1=Crawlin' King Snake
TTITLE2=Boogie Chillun
TTITLE3=I'm in the Mood
TTITLE4=Leave My Wife Alone
TTITLE5=Time Is Marching
TTITLE6=One Bourbon, One Scotch, One Beer
TTITLE7=Ground Hog Blues
TTITLE8=Dimples
TTITLE9=Walkin' the Boogie
TTITLE10=Hobo Blues
TTITLE11=It Serves Me Right to Suffer
TTITLE12=High Priced Woman
TTITLE13=The Waterfront
TTITLE14=This Is Hip
TTITLE15=Goin' Mad Blues
TTITLE16=Wandering Blues
TTITLE17=House Rent Boogie
EXTD=YEAR: 1994
EXTT0=
EXTT1=
EXTT2=
EXTT3=
EXTT4=
EXTT5=
EXTT6=
EXTT7=
EXTT8=
EXTT9=
EXTT10=
EXTT11=
EXTT12=
EXTT13=
EXTT14=
EXTT15=
EXTT16=
EXTT17=
PLAYORDER=
